<svg xmlns="http://www.w3.org/2000/svg" height="26" width="26" fill="#17629e"><path d="M4.063 18.417q-.352 0-.582-.23-.231-.231-.231-.583t.23-.582q.23-.23.583-.23.352 0 .582.23.23.23.23.582t-.23.582q-.23.231-.582.231Zm0-4.604q-.352 0-.582-.23-.231-.231-.231-.583t.23-.582q.23-.23.583-.23.352 0 .582.23.23.23.23.582t-.23.582q-.23.23-.582.23Zm0-4.604q-.352 0-.582-.23-.231-.231-.231-.583t.23-.582q.23-.231.583-.231.352 0 .582.23.23.231.23.583t-.23.582q-.23.23-.582.23Zm3.792 9.208v-1.625H22.75v1.625Zm0-4.604v-1.625H22.75v1.625Zm0-4.604V7.584H22.75v1.625Z"/></svg>